# xmcd
#
# Track frame offsets:
#	150
#	24400
#	51177
#	79929
#	103815
#	130588
#	141668
#	172405
#	202813
#	220371
#
# Disc length: 3335 seconds
#
# Revision: 0
# Processed by: cddbd v1.5.2PL0 Copyright (c) Steve Scherf et al.
# Submitted via: dBpowerAMP V4.0
#
DISCID=960d050a
DTITLE=Various Artist - Blues Legends Live At The Antone's disc1
DYEAR=2002
DGENRE=Blues
TTITLE0=JIMMY ROGERS-Got My Mojo Working
TTITLE1=BUDDY GUY-Things I Used To Do
TTITLE2=DOYLE BRAMHALL-Wee,Wee Baby
TTITLE3=PINETOP PERKINS-Big Fat Mama
TTITLE4=ANGELA STREHLI-Big Town Playboy
TTITLE5=DOUG SAHM-Crazy,Crazy Babe
TTITLE6=SNOOKY PRYOR-Nine Below Zero
TTITLE7=LAVELLE WHITE-Go To The Mirror
TTITLE8=SUE FOLEY-Truckin' Little Woman
TTITLE9=TEDDY MORGAN-Jungle Swing
EXTD=
EXTT0=
EXTT1=
EXTT2=
EXTT3=
EXTT4=
EXTT5=
EXTT6=
EXTT7=
EXTT8=
EXTT9=
PLAYORDER=
